HIERARCHY
ROOT SpineBase
{
  OFFSET 0.000000 0.000000 0.000000
  CHANNELS 6 Xposition Yposition Zposition Zrotation Xrotation Yrotation
  JOINT SpineMid
  {
    OFFSET 0.000000 28.887563 0.000000
    CHANNELS 3 Zrotation Xrotation Yrotation
    JOINT SpineShoulder
    {
      OFFSET 0.279859 21.521260 -0.793878
      CHANNELS 3 Zrotation Xrotation Yrotation
      JOINT Neck
      {
        OFFSET 0.138767 7.135866 -0.537622
        CHANNELS 3 Zrotation Xrotation Yrotation
        JOINT Head
        {
          OFFSET 4.903336 13.333976 -0.652427
          CHANNELS 3 Zrotation Xrotation Yrotation
          End Site
          {
            OFFSET 0 0 0
          }
        }
      }
      JOINT ShoulderLeft
      {
        OFFSET -12.067842 -1.891833 -10.734515
        CHANNELS 3 Zrotation Xrotation Yrotation
        JOINT ElbowLeft
        {
          OFFSET -6.344112 -23.792333 -2.444328
          CHANNELS 3 Zrotation Xrotation Yrotation
          JOINT WristLeft
          {
            OFFSET 0.412085 -20.190885 -2.463405
            CHANNELS 3 Zrotation Xrotation Yrotation
            JOINT HandLeft
            {
              OFFSET 1.604624 -6.834071 0.299109
              CHANNELS 3 Zrotation Xrotation Yrotation
              JOINT HandTipLeft
              {
                OFFSET -0.378682 -6.459620 0.285411
                CHANNELS 3 Zrotation Xrotation Yrotation
                End Site
                {
                  OFFSET 0 0 0
                }
              }
              JOINT ThumbLeft
              {
                OFFSET -2.686578 0.477303 -2.466328
                CHANNELS 3 Zrotation Xrotation Yrotation
                End Site
                {
                  OFFSET 0 0 0
                }
              }
            }
          }
        }
      }
      JOINT ShoulderRight
      {
        OFFSET 14.090240 -4.771791 9.616506
        CHANNELS 3 Zrotation Xrotation Yrotation
        JOINT ElbowRight
        {
          OFFSET 0.908632 -24.924240 4.515959
          CHANNELS 3 Zrotation Xrotation Yrotation
          JOINT WristRight
          {
            OFFSET 0.010768 -19.202240 -3.851486
            CHANNELS 3 Zrotation Xrotation Yrotation
            JOINT HandRight
            {
              OFFSET 0.272547 -5.305117 -2.761035
              CHANNELS 3 Zrotation Xrotation Yrotation
              JOINT HandTipRight
              {
                OFFSET -0.430584 -5.688839 -1.454476
                CHANNELS 3 Zrotation Xrotation Yrotation
                End Site
                {
                  OFFSET 0 0 0
                }
              }
              JOINT ThumbRight
              {
                OFFSET 2.192583 -0.505229 -0.373169
                CHANNELS 3 Zrotation Xrotation Yrotation
                End Site
                {
                  OFFSET 0 0 0
                }
              }
            }
          }
        }
      }
    }
  }
  JOINT HipLeft
  {
    OFFSET -5.604818 1.429888 -6.876268
    CHANNELS 3 Zrotation Xrotation Yrotation
    JOINT KneeLeft
    {
      OFFSET -4.325776 -26.766202 0.357857
      CHANNELS 3 Zrotation Xrotation Yrotation
      JOINT AnkleLeft
      {
        OFFSET -3.682176 -34.227684 6.385655
        CHANNELS 3 Zrotation Xrotation Yrotation
        JOINT FootLeft
        {
          OFFSET 5.045256 -6.444949 -0.247810
          CHANNELS 3 Zrotation Xrotation Yrotation
          End Site
          {
            OFFSET 0 0 0
          }
        }
      }
    }
  }
  JOINT HipRight
  {
    OFFSET 6.158988 0.274286 0.279774
    CHANNELS 3 Zrotation Xrotation Yrotation
    JOINT KneeRight
    {
      OFFSET -3.144815 -27.814745 5.448430
      CHANNELS 3 Zrotation Xrotation Yrotation
      JOINT AnkleRight
      {
        OFFSET -8.703733 -30.024902 2.648466
        CHANNELS 3 Zrotation Xrotation Yrotation
        JOINT FootRight
        {
          OFFSET 2.147732 -7.809314 -3.626701
          CHANNELS 3 Zrotation Xrotation Yrotation
          End Site
          {
            OFFSET 0 0 0
          }
        }
      }
    }
  }
}
MOTION
Frames: 7
Frame Time: 0.033333
-32.585695 66.279602 354.641542 -5.546085 -1.515995 -19.327652 0.320744 0.332899 19.085675 0.093957 -0.313160 -0.190270 8.094159 11.018702 -3.409323 0.000000 0.000000 0.000000 -3.581351 -5.421150 2.724888 0.455527 -0.769008 -1.973515 -10.490084 2.432314 -1.905201 12.929971 13.742120 1.459105 0.000000 0.000000 0.000000 0.000000 0.000000 0.000000 56.693849 37.322928 -8.171227 171.510660 46.151101 74.782053 27.824060 -0.950832 49.297700 -7.073632 10.938328 -36.427929 0.000000 0.000000 0.000000 0.000000 0.000000 0.000000 9.279318 5.063774 18.816894 -5.839517 0.874959 -0.332250 -14.066098 43.531469 45.334119 0.000000 0.000000 0.000000 5.949492 0.011650 19.490058 -0.056649 3.464138 -0.403534 16.595063 -6.872652 -8.529844 0.000000 0.000000 0.000000
-32.450751 66.055052 354.520675 -5.419156 -1.494196 -19.640715 0.324338 0.335140 19.405759 0.096230 -0.317506 -0.184904 8.166567 11.064957 -3.456651 0.000000 0.000000 0.000000 -3.794655 -5.591051 2.749400 0.507260 -0.841755 -2.033161 -8.226947 4.727687 -1.132488 11.598649 10.825867 0.991716 0.000000 0.000000 0.000000 0.000000 0.000000 0.000000 56.103755 36.844429 -7.821700 170.766475 47.947950 80.158890 17.716995 -9.678808 38.648022 -0.469717 9.901724 -32.226866 0.000000 0.000000 0.000000 0.000000 0.000000 0.000000 8.562526 5.245339 19.108696 -5.321202 0.229769 -0.250885 -13.263736 46.657303 47.514388 0.000000 0.000000 0.000000 5.697829 -0.165768 19.791672 0.123185 3.555599 -0.384210 17.078807 -6.622000 -8.676520 0.000000 0.000000 0.000000
-32.372257 65.817424 354.389787 -5.364316 -1.436727 -19.832429 0.353586 0.339088 19.602627 0.109163 -0.322320 -0.180961 8.240836 10.887581 -3.416113 0.000000 0.000000 0.000000 -4.024266 -5.625245 2.745115 0.735523 -0.990399 -2.082048 -6.151164 6.038523 -0.787121 10.572276 7.587885 0.705373 0.000000 0.000000 0.000000 0.000000 0.000000 0.000000 56.109095 37.116952 -7.964752 170.257974 48.228114 80.859534 16.045940 -12.328425 35.581126 1.485720 10.864169 -29.987363 0.000000 0.000000 0.000000 0.000000 0.000000 0.000000 8.333608 5.167719 19.318763 -5.280721 0.089922 -0.259853 -13.182357 46.863030 47.679647 0.000000 0.000000 0.000000 5.674213 -0.382185 20.000656 0.225723 2.834217 -0.137896 12.937763 -10.801460 -8.541008 0.000000 0.000000 0.000000
-32.382719 65.702593 354.203835 -5.411665 -1.353877 -19.842286 0.423915 0.320772 19.613337 0.132091 -0.341560 -0.179555 8.283199 10.880772 -3.427564 0.000000 0.000000 0.000000 -4.186175 -5.602438 2.739800 0.993749 -1.102736 -2.122096 -4.016331 7.490837 -0.440078 9.466809 3.284643 0.451843 0.000000 0.000000 0.000000 0.000000 0.000000 0.000000 56.291199 37.911023 -8.419207 169.346482 49.336126 82.727638 9.180046 -18.294970 26.336095 2.588534 13.648658 -28.599362 0.000000 0.000000 0.000000 0.000000 0.000000 0.000000 8.435377 4.939761 19.366910 -5.270073 0.118744 -0.266415 -10.796957 43.949057 43.046480 0.000000 0.000000 0.000000 5.909526 -0.663423 20.058886 0.206963 2.812158 -0.096342 10.836722 -2.156693 -6.173781 0.000000 0.000000 0.000000
-32.443440 65.683382 353.950083 -5.545922 -1.303841 -19.768219 0.514021 0.273464 19.533989 0.157360 -0.375292 -0.181190 8.553688 11.065171 -3.500720 0.000000 0.000000 0.000000 -4.174927 -5.360679 2.714946 1.054882 -1.066324 -2.073697 -1.716532 9.693735 0.117414 8.525041 0.963925 -0.057355 0.000000 0.000000 0.000000 0.000000 0.000000 0.000000 57.474385 40.181716 -9.954828 167.864349 51.897272 84.738196 -8.685298 -26.374673 3.760959 -1.694525 18.077921 -30.818517 0.000000 0.000000 0.000000 0.000000 0.000000 0.000000 8.794832 4.825389 19.308418 -5.445778 0.062792 -0.266876 -9.226439 36.402983 34.798491 0.000000 0.000000 0.000000 6.395304 -0.884634 20.062434 -0.075172 2.852770 -0.092998 5.318524 3.578980 -2.510378 0.000000 0.000000 0.000000
-32.515759 65.712821 353.713718 -5.707093 -1.262605 -19.665820 0.583315 0.254282 19.425616 0.181385 -0.385048 -0.184062 8.796973 11.166775 -3.547065 0.000000 0.000000 0.000000 -4.041604 -5.169792 2.682841 1.054801 -0.942541 -2.008483 -0.597476 9.353204 -0.042979 8.111540 1.961822 -0.135367 0.000000 0.000000 0.000000 0.000000 0.000000 0.000000 58.341695 41.315096 -10.799696 166.957497 52.581839 84.806792 -18.839754 -28.722771 -10.150359 -4.996926 19.185645 -32.022159 0.000000 0.000000 0.000000 0.000000 0.000000 0.000000 9.198769 4.681623 19.226785 -5.537891 0.018427 -0.251629 -7.886612 24.496984 22.948048 0.000000 0.000000 0.000000 6.963356 -1.093891 20.049160 -0.449206 2.993898 -0.122662 1.059182 6.683925 0.348611 0.000000 0.000000 0.000000
-32.571236 65.752513 353.508448 -5.840446 -1.231842 -19.600166 0.612697 0.240784 19.354741 0.200755 -0.375869 -0.187173 8.962274 11.270407 -3.594421 0.000000 0.000000 0.000000 -3.829230 -5.063477 2.655421 0.988013 -0.651496 -1.934465 0.025506 8.551552 -0.260928 8.635291 2.105619 -0.047311 0.000000 0.000000 0.000000 0.000000 0.000000 0.000000 58.694354 41.767258 -11.114013 166.393041 53.049637 85.537952 -24.708894 -29.110598 -18.334917 -10.394247 19.726575 -35.722728 0.000000 0.000000 0.000000 0.000000 0.000000 0.000000 9.573946 4.587483 19.174445 -5.680789 -0.059116 -0.238736 -8.170255 15.562429 14.694097 0.000000 0.000000 0.000000 7.461143 -1.297352 20.065913 -0.816532 3.241740 -0.178305 -0.965146 7.213904 1.580825 0.000000 0.000000 0.000000
